<svg xmlns="http://www.w3.org/2000/svg" width="173.461" height="50.973" viewBox="0 0 173.461 50.973">
  <g id="Group_148" data-name="Group 148" transform="translate(7151.461 -2893.648)">
    <g id="Group_145" data-name="Group 145" transform="translate(-20 32)">
      <g id="Group_141" data-name="Group 141" transform="translate(-28 291)">
        <g id="Path_88" data-name="Path 88" transform="translate(-7103.461 2570.648)" fill="#205">
          <path d="M 46.44071960449219 50.47265625 L 4.221880912780762 50.47265625 C 2.169630765914917 50.47265625 0.5000007152557373 48.79143905639648 0.5000007152557373 46.72492980957031 L 0.5000007152557373 4.247718334197998 C 0.5000007152557373 2.181218147277832 2.169630765914917 0.4999981224536896 4.221880912780762 0.4999981224536896 L 46.44071960449219 0.4999981224536896 C 48.49296951293945 0.4999981224536896 50.16260147094727 2.181218147277832 50.16260147094727 4.247718334197998 L 50.16260147094727 46.72492980957031 C 50.16260147094727 48.79143905639648 48.49296951293945 50.47265625 46.44071960449219 50.47265625 Z" stroke="none"/>
          <path d="M 4.221881866455078 1 C 2.445331573486328 1 1 2.456916809082031 1 4.247718811035156 L 1 46.72492980957031 C 1 48.51572799682617 2.445331573486328 49.97265625 4.221881866455078 49.97265625 L 46.44071960449219 49.97265625 C 48.21726989746094 49.97265625 49.66260147094727 48.51572799682617 49.66260147094727 46.72492980957031 L 49.66260147094727 4.247718811035156 C 49.66260147094727 2.456916809082031 48.21726989746094 1 46.44071960449219 1 L 4.221881866455078 1 M 4.221881866455078 0 L 46.44071960449219 0 C 48.77239990234375 0 50.66260147094727 1.901767730712891 50.66260147094727 4.247718811035156 L 50.66260147094727 46.72492980957031 C 50.66260147094727 49.07088851928711 48.77239990234375 50.97265625 46.44071960449219 50.97265625 L 4.221881866455078 50.97265625 C 1.890201568603516 50.97265625 0 49.07088851928711 0 46.72492980957031 L 0 4.247718811035156 C 0 1.901767730712891 1.890201568603516 0 4.221881866455078 0 Z" stroke="none" fill="#205"/>
        </g>
        <path id="Path_87" data-name="Path 87" d="M-7085.528,2509.6h-3.676a2.486,2.486,0,0,1-.6-1.628,1.352,1.352,0,0,1,.6-1.292l9.505-.043a1.383,1.383,0,0,1,.974,1.46c0,1.242-.974,1.307-.974,1.307h-2.583l-.172,17.992s-.366,8.346-8.835,8.346-8.431-8.1-8.384-11.207,3.257-2.824,3.257,0,.186,7.994,4.747,8.33,5.862-3.877,5.909-5.469C-7085.759,2524.634-7085.528,2509.6-7085.528,2509.6Z" transform="translate(11.072 74.942)" fill="#fff" stroke="#fff" stroke-width="1"/>
      </g>
      <g id="Group_140" data-name="Group 140" transform="translate(-124.092 143.602)">
        <text id="OBHUNT" transform="translate(-6970.908 2757.398)" fill="#205" font-size="36" font-family="SegoeUI, Segoe UI" letter-spacing="-0.04em"><tspan x="0" y="0">OBHUNT</tspan></text>
        <path id="Path_85" data-name="Path 85" d="M-6960.908,2524.047" transform="translate(-3 194)" fill="none" stroke="#707070" stroke-width="1"/>
      </g>
      <path id="Intersection_1" data-name="Intersection 1" d="M61.339,4.241a13.109,13.109,0,0,1-3.226-9.194q0-6.083,3.289-9.7a11.416,11.416,0,0,1,8.762-3.62v2.669h-.028a8.125,8.125,0,0,0-6.45,2.865,11.093,11.093,0,0,0-2.479,7.525,11.173,11.173,0,0,0,2.417,7.5,7.883,7.883,0,0,0,6.3,2.839l.238,0V7.772l-.238,0A11.062,11.062,0,0,1,61.339,4.241Z" transform="translate(-7151.461 2893.648)" fill="#fff" stroke="#fff" stroke-width="1"/>
    </g>
  </g>
</svg>
